<svg width="50" height="50" viewBox="0 0 50 50" fill="none" xmlns="http://www.w3.org/2000/svg">
<circle cx="25" cy="25" r="25" fill="black"/>
<path d="M28.1962 19.6157H15.8535V32.9404H19.2889V28.6053H25.8716L28.875 32.9404H32.7218L29.4099 28.5855C30.4385 28.4256 31.179 28.0461 31.6316 27.4467C32.0841 26.8475 32.3104 25.8885 32.3104 24.61V23.6112C32.3104 22.852 32.2282 22.2527 32.0841 21.7932C31.9401 21.3337 31.6933 20.9342 31.3436 20.5746C30.9733 20.235 30.5619 19.9953 30.0682 19.8355C29.5744 19.6956 28.9572 19.6157 28.1962 19.6157ZM27.6408 25.6688H19.2889V22.5523H27.6408C28.1139 22.5523 28.443 22.6323 28.6076 22.7721C28.7721 22.9119 28.875 23.1716 28.875 23.5512V24.67C28.875 25.0695 28.7721 25.3292 28.6076 25.469C28.443 25.6088 28.1139 25.6688 27.6408 25.6688Z" fill="white"/>
<path d="M36.078 18.9514C37.3618 18.9514 38.4032 17.9069 38.4032 16.6185C38.4032 15.3301 37.3618 14.2856 36.078 14.2856C34.7934 14.2856 33.752 15.3301 33.752 16.6185C33.752 17.9069 34.7934 18.9514 36.078 18.9514Z" fill="#F41240"/>
</svg>
